<?xml version="1.0" standalone="no"?>
<!DOCTYPE svg PUBLIC "-//W3C//DTD SVG 20010904//EN"
 "http://www.w3.org/TR/2001/REC-SVG-20010904/DTD/svg10.dtd">
<svg version="1.0" xmlns="http://www.w3.org/2000/svg"
 width="100.000000pt" height="100.000000pt" viewBox="0 0 100.000000 100.000000"
 preserveAspectRatio="xMidYMid meet">
<metadata>
Created by potrace 1.11, written by Peter Selinger 2001-2013
</metadata>
<g transform="translate(0.000000,100.000000) scale(0.100000,-0.100000)"
fill="#000000" stroke="none">
<path d="M595 930 c-3 -4 -20 -11 -39 -14 -46 -9 -94 -34 -105 -54 -16 -30
-24 -92 -12 -92 6 0 8 -6 5 -14 -4 -9 8 -23 30 -38 19 -13 37 -33 40 -44 7
-28 39 -36 74 -19 15 8 51 16 80 17 30 2 57 9 61 17 6 9 11 10 15 2 10 -15 81
23 102 54 12 18 15 38 11 68 -10 71 -76 111 -204 121 -29 3 -55 1 -58 -4z
m134 -40 c28 -6 51 -16 51 -20 0 -4 9 -10 20 -13 26 -7 42 -50 30 -82 -11 -28
-75 -64 -128 -71 -20 -2 -40 -10 -44 -17 -6 -9 -8 -9 -8 1 0 18 -38 15 -49 -5
-6 -11 -11 -13 -11 -5 0 10 -5 10 -20 2 -25 -13 -43 -4 -35 19 3 11 -5 22 -30
35 -33 18 -50 53 -43 87 5 24 32 46 71 58 20 7 37 16 37 20 0 10 101 5 159 -9z"/>
<path d="M633 833 c9 -2 17 -8 17 -13 0 -5 -8 -11 -17 -13 -17 -4 -17 -5 0 -6
9 0 17 -5 17 -10 0 -5 -8 -12 -17 -14 -14 -4 -13 -5 4 -6 18 -1 21 4 21 34 0
30 -3 35 -21 34 -17 -1 -18 -2 -4 -6z"/>
<path d="M715 830 c-3 -5 -1 -10 4 -10 15 0 14 -37 -1 -43 -7 -3 -4 -6 7 -6
18 -1 20 4 17 34 -4 35 -15 45 -27 25z"/>
<path d="M770 820 c0 -11 7 -20 15 -20 21 0 19 -18 -2 -23 -14 -4 -12 -5 5 -6
16 -1 22 5 22 19 0 11 -7 20 -15 20 -21 0 -19 18 3 23 13 4 11 5 -5 6 -17 1
-23 -5 -23 -19z"/>
<path d="M509 793 c5 -26 6 -26 9 -5 4 27 22 29 22 2 0 -17 5 -19 33 -13 43 8
50 17 9 11 -29 -4 -33 -2 -29 14 4 14 -1 18 -23 18 -24 0 -27 -3 -21 -27z"/>
<path d="M578 803 c6 -2 18 -2 25 0 6 3 1 5 -13 5 -14 0 -19 -2 -12 -5z"/>
<path d="M0 620 c0 -6 93 -10 260 -10 143 0 260 -3 260 -6 0 -6 -16 -72 -41
-166 l-10 -38 -234 0 c-207 0 -235 -2 -235 -16 0 -8 7 -22 15 -30 20 -20 19
-58 -1 -78 -8 -9 -14 -21 -12 -28 3 -7 13 -2 26 12 23 25 30 84 12 95 -32 20
5 25 170 25 165 0 202 -5 170 -25 -18 -11 -11 -80 10 -103 28 -30 92 -30 120
0 23 25 27 87 8 106 -18 18 2 29 65 37 l50 7 -7 67 c-4 36 -11 70 -16 75 -6 6
-26 3 -51 -7 -36 -14 -40 -14 -35 -1 3 9 9 33 12 55 l7 39 -272 0 c-174 0
-271 -4 -271 -10z m609 -171 c1 -24 -4 -27 -56 -38 -31 -6 -57 -10 -59 -8 -1
1 2 23 8 48 10 41 15 47 52 61 41 15 41 15 47 -11 4 -14 7 -38 8 -52z m-115
-95 c20 -20 20 -68 0 -88 -20 -20 -68 -20 -88 0 -20 20 -20 68 0 88 8 9 28 16
44 16 16 0 36 -7 44 -16z"/>
</g>
</svg>
